# xmcd
#
# Track frame offsets: 
#        150
#        18329
#        37995
#        62431
#        90880
#        115648
#        132658
#        155656
#        169492
#        201137
#
# Disc length: 2958 seconds
#
# Revision: 0
# Processed by: cddbd v1.5.2PL0 Copyright (c) Steve Scherf et al.
# Submitted via: ExactAudioCopy v0.95a5
#
DISCID=7b0b8c0a
DTITLE=Laith Al-Saadi - In The Round
DYEAR=2008
DGENRE=Blues
TTITLE0=Chains
TTITLE1=No One Left To Blame
TTITLE2=Mornling Light
TTITLE3=Can't Keep Going
TTITLE4=My Hands Are Tied
TTITLE5=Free
TTITLE6=So Different Now
TTITLE7=Before Too Long
TTITLE8=All These Years
TTITLE9=Big Mama
EXTD=
EXTT0=
EXTT1=
EXTT2=
EXTT3=
EXTT4=
EXTT5=
EXTT6=
EXTT7=
EXTT8=
EXTT9=
PLAYORDER=
